<mxfile host="Electron" agent="Mozilla/5.0 (Windows NT 10.0; Win64; x64) AppleWebKit/537.36 (KHTML, like Gecko) draw.io/26.2.15 Chrome/134.0.6998.205 Electron/35.2.1 Safari/537.36" version="26.2.15">
  <diagram name="1 oldal" id="xdSmAFdEp9HSx-NFW2Q1">
    <mxGraphModel dx="1188" dy="708" grid="1" gridSize="10" guides="1" tooltips="1" connect="1" arrows="1" fold="1" page="1" pageScale="1" pageWidth="827" pageHeight="1169" math="0" shadow="0">
      <root>
        <mxCell id="0" />
        <mxCell id="1" parent="0" />
        <mxCell id="9jcaQPvV0LxUwKU2eS0L-1" value="&lt;font style=&quot;font-size: 20px;&quot;&gt;64x64x1&lt;/font&gt;" style="rounded=0;whiteSpace=wrap;html=1;fillColor=light-dark(#0000FF,#FFFFFF);textDirection=vertical-rl;labelPosition=left;verticalLabelPosition=middle;align=right;verticalAlign=middle;" parent="1" vertex="1">
          <mxGeometry x="80" y="60" width="20" height="240" as="geometry" />
        </mxCell>
        <mxCell id="9jcaQPvV0LxUwKU2eS0L-6" value="" style="rounded=0;whiteSpace=wrap;html=1;fillColor=light-dark(#0000FF,#FFFFFF);textDirection=vertical-rl;labelPosition=left;verticalLabelPosition=middle;align=right;verticalAlign=middle;" parent="1" vertex="1">
          <mxGeometry x="110" y="60" width="20" height="240" as="geometry" />
        </mxCell>
        <mxCell id="9jcaQPvV0LxUwKU2eS0L-7" value="" style="rounded=0;whiteSpace=wrap;html=1;fillColor=light-dark(#FF0000,#FFFFFF);textDirection=vertical-rl;labelPosition=left;verticalLabelPosition=middle;align=right;verticalAlign=middle;" parent="1" vertex="1">
          <mxGeometry x="140" y="60" width="20" height="240" as="geometry" />
        </mxCell>
        <mxCell id="9jcaQPvV0LxUwKU2eS0L-8" value="" style="rounded=0;whiteSpace=wrap;html=1;fillColor=light-dark(#0000FF,#FFFFFF);textDirection=vertical-rl;labelPosition=left;verticalLabelPosition=middle;align=right;verticalAlign=middle;" parent="1" vertex="1">
          <mxGeometry x="170" y="90" width="20" height="180" as="geometry" />
        </mxCell>
        <mxCell id="9jcaQPvV0LxUwKU2eS0L-9" value="" style="rounded=0;whiteSpace=wrap;html=1;fillColor=light-dark(#0000FF,#FFFFFF);textDirection=vertical-rl;labelPosition=left;verticalLabelPosition=middle;align=right;verticalAlign=middle;" parent="1" vertex="1">
          <mxGeometry x="200" y="90" width="20" height="180" as="geometry" />
        </mxCell>
        <mxCell id="9jcaQPvV0LxUwKU2eS0L-10" value="" style="rounded=0;whiteSpace=wrap;html=1;fillColor=light-dark(#FF0000,#FFFFFF);textDirection=vertical-rl;labelPosition=left;verticalLabelPosition=middle;align=right;verticalAlign=middle;" parent="1" vertex="1">
          <mxGeometry x="230" y="90" width="20" height="180" as="geometry" />
        </mxCell>
        <mxCell id="9jcaQPvV0LxUwKU2eS0L-11" value="" style="rounded=0;whiteSpace=wrap;html=1;fillColor=light-dark(#0000FF,#FFFFFF);textDirection=vertical-rl;labelPosition=left;verticalLabelPosition=middle;align=right;verticalAlign=middle;" parent="1" vertex="1">
          <mxGeometry x="260" y="120" width="20" height="120" as="geometry" />
        </mxCell>
        <mxCell id="9jcaQPvV0LxUwKU2eS0L-12" value="" style="rounded=0;whiteSpace=wrap;html=1;fillColor=light-dark(#0000FF,#FFFFFF);textDirection=vertical-rl;labelPosition=left;verticalLabelPosition=middle;align=right;verticalAlign=middle;" parent="1" vertex="1">
          <mxGeometry x="290" y="120" width="20" height="120" as="geometry" />
        </mxCell>
        <mxCell id="9jcaQPvV0LxUwKU2eS0L-13" value="" style="rounded=0;whiteSpace=wrap;html=1;fillColor=light-dark(#0000FF,#FFFFFF);textDirection=vertical-rl;labelPosition=left;verticalLabelPosition=middle;align=right;verticalAlign=middle;" parent="1" vertex="1">
          <mxGeometry x="320" y="120" width="20" height="120" as="geometry" />
        </mxCell>
        <mxCell id="9jcaQPvV0LxUwKU2eS0L-15" value="" style="rounded=0;whiteSpace=wrap;html=1;fillColor=light-dark(#FF0000,#FFFFFF);textDirection=vertical-rl;labelPosition=left;verticalLabelPosition=middle;align=right;verticalAlign=middle;" parent="1" vertex="1">
          <mxGeometry x="350" y="120" width="20" height="120" as="geometry" />
        </mxCell>
        <mxCell id="9jcaQPvV0LxUwKU2eS0L-16" value="" style="rounded=0;whiteSpace=wrap;html=1;fillColor=light-dark(#0000FF,#FFFFFF);textDirection=vertical-rl;labelPosition=left;verticalLabelPosition=middle;align=right;verticalAlign=middle;" parent="1" vertex="1">
          <mxGeometry x="380" y="140" width="20" height="80" as="geometry" />
        </mxCell>
        <mxCell id="9jcaQPvV0LxUwKU2eS0L-17" value="" style="rounded=0;whiteSpace=wrap;html=1;fillColor=light-dark(#0000FF,#FFFFFF);textDirection=vertical-rl;labelPosition=left;verticalLabelPosition=middle;align=right;verticalAlign=middle;" parent="1" vertex="1">
          <mxGeometry x="409" y="140" width="20" height="80" as="geometry" />
        </mxCell>
        <mxCell id="9jcaQPvV0LxUwKU2eS0L-18" value="" style="rounded=0;whiteSpace=wrap;html=1;fillColor=light-dark(#0000FF,#FFFFFF);textDirection=vertical-rl;labelPosition=left;verticalLabelPosition=middle;align=right;verticalAlign=middle;" parent="1" vertex="1">
          <mxGeometry x="440" y="140" width="20" height="80" as="geometry" />
        </mxCell>
        <mxCell id="9jcaQPvV0LxUwKU2eS0L-20" value="" style="rounded=0;whiteSpace=wrap;html=1;fillColor=light-dark(#FF0000,#FFFFFF);textDirection=vertical-rl;labelPosition=left;verticalLabelPosition=middle;align=right;verticalAlign=middle;" parent="1" vertex="1">
          <mxGeometry x="470" y="140" width="20" height="80" as="geometry" />
        </mxCell>
        <mxCell id="9jcaQPvV0LxUwKU2eS0L-22" value="" style="rounded=0;whiteSpace=wrap;html=1;fillColor=light-dark(#0000FF,#FFFFFF);textDirection=vertical-rl;labelPosition=left;verticalLabelPosition=middle;align=right;verticalAlign=middle;" parent="1" vertex="1">
          <mxGeometry x="500" y="160" width="20" height="40" as="geometry" />
        </mxCell>
        <mxCell id="9jcaQPvV0LxUwKU2eS0L-23" value="" style="rounded=0;whiteSpace=wrap;html=1;fillColor=light-dark(#0000FF,#FFFFFF);textDirection=vertical-rl;labelPosition=left;verticalLabelPosition=middle;align=right;verticalAlign=middle;" parent="1" vertex="1">
          <mxGeometry x="530" y="160" width="20" height="40" as="geometry" />
        </mxCell>
        <mxCell id="9jcaQPvV0LxUwKU2eS0L-24" value="" style="rounded=0;whiteSpace=wrap;html=1;fillColor=light-dark(#0000FF,#FFFFFF);textDirection=vertical-rl;labelPosition=left;verticalLabelPosition=middle;align=right;verticalAlign=middle;" parent="1" vertex="1">
          <mxGeometry x="560" y="160" width="20" height="40" as="geometry" />
        </mxCell>
        <mxCell id="9jcaQPvV0LxUwKU2eS0L-25" value="" style="rounded=0;whiteSpace=wrap;html=1;fillColor=light-dark(#FF0000,#FFFFFF);textDirection=vertical-rl;labelPosition=left;verticalLabelPosition=middle;align=right;verticalAlign=middle;" parent="1" vertex="1">
          <mxGeometry x="590" y="160" width="20" height="40" as="geometry" />
        </mxCell>
        <mxCell id="9jcaQPvV0LxUwKU2eS0L-27" value="1x1x2048" style="rounded=0;whiteSpace=wrap;html=1;fillColor=light-dark(#00FF00,#00FF00);textDirection=ltr;labelPosition=center;verticalLabelPosition=top;align=center;verticalAlign=bottom;" parent="1" vertex="1">
          <mxGeometry x="620" y="170" width="60" height="20" as="geometry" />
        </mxCell>
        <mxCell id="9jcaQPvV0LxUwKU2eS0L-29" value="1x1x2048" style="rounded=0;whiteSpace=wrap;html=1;fillColor=light-dark(#00FF00,#00FF00);textDirection=ltr;labelPosition=center;verticalLabelPosition=top;align=center;verticalAlign=bottom;" parent="1" vertex="1">
          <mxGeometry x="690" y="170" width="60" height="20" as="geometry" />
        </mxCell>
        <mxCell id="9jcaQPvV0LxUwKU2eS0L-30" value="1x1x1024" style="rounded=0;whiteSpace=wrap;html=1;fillColor=light-dark(#00FF00,#00FF00);textDirection=ltr;labelPosition=center;verticalLabelPosition=top;align=center;verticalAlign=bottom;" parent="1" vertex="1">
          <mxGeometry x="760" y="170" width="60" height="20" as="geometry" />
        </mxCell>
        <mxCell id="9jcaQPvV0LxUwKU2eS0L-31" value="&lt;font style=&quot;font-size: 20px;&quot;&gt;64x64x64&lt;/font&gt;" style="text;html=1;align=center;verticalAlign=middle;whiteSpace=wrap;rounded=0;" parent="1" vertex="1">
          <mxGeometry x="110" y="30" width="60" height="30" as="geometry" />
        </mxCell>
        <mxCell id="9jcaQPvV0LxUwKU2eS0L-32" value="&lt;font style=&quot;font-size: 20px;&quot;&gt;32x32x128&lt;/font&gt;" style="text;html=1;align=center;verticalAlign=middle;whiteSpace=wrap;rounded=0;" parent="1" vertex="1">
          <mxGeometry x="180" y="50" width="80" height="30" as="geometry" />
        </mxCell>
        <mxCell id="9jcaQPvV0LxUwKU2eS0L-33" value="&lt;font style=&quot;font-size: 20px;&quot;&gt;16x16x256&lt;/font&gt;" style="text;html=1;align=center;verticalAlign=middle;whiteSpace=wrap;rounded=0;" parent="1" vertex="1">
          <mxGeometry x="270" y="90" width="80" height="30" as="geometry" />
        </mxCell>
        <mxCell id="9jcaQPvV0LxUwKU2eS0L-34" value="&lt;font style=&quot;font-size: 20px;&quot;&gt;8x8x512&lt;/font&gt;" style="text;html=1;align=center;verticalAlign=middle;whiteSpace=wrap;rounded=0;" parent="1" vertex="1">
          <mxGeometry x="400" y="110" width="80" height="30" as="geometry" />
        </mxCell>
        <mxCell id="9jcaQPvV0LxUwKU2eS0L-35" value="&lt;font style=&quot;font-size: 20px;&quot;&gt;4x4x512&lt;/font&gt;" style="text;html=1;align=center;verticalAlign=middle;whiteSpace=wrap;rounded=0;" parent="1" vertex="1">
          <mxGeometry x="510" y="130" width="80" height="30" as="geometry" />
        </mxCell>
        <mxCell id="9jcaQPvV0LxUwKU2eS0L-40" value="" style="rounded=0;whiteSpace=wrap;html=1;fillColor=light-dark(#0000FF,#FFFFFF);textDirection=ltr;labelPosition=right;verticalLabelPosition=middle;align=left;verticalAlign=middle;" parent="1" vertex="1">
          <mxGeometry x="640" y="275" width="20" height="20" as="geometry" />
        </mxCell>
        <mxCell id="9jcaQPvV0LxUwKU2eS0L-41" value="&lt;span style=&quot;text-align: left;&quot;&gt;&amp;nbsp; &amp;nbsp; Konvolúció + ReLU&lt;/span&gt;" style="text;html=1;align=center;verticalAlign=middle;whiteSpace=wrap;rounded=0;" parent="1" vertex="1">
          <mxGeometry x="650" y="270" width="130" height="30" as="geometry" />
        </mxCell>
        <mxCell id="9jcaQPvV0LxUwKU2eS0L-42" value="" style="rounded=0;whiteSpace=wrap;html=1;fillColor=light-dark(#FF0000,#FFFFFF);textDirection=ltr;labelPosition=right;verticalLabelPosition=middle;align=left;verticalAlign=middle;" parent="1" vertex="1">
          <mxGeometry x="640" y="305" width="20" height="20" as="geometry" />
        </mxCell>
        <mxCell id="9jcaQPvV0LxUwKU2eS0L-43" value="&lt;span style=&quot;text-align: left;&quot;&gt;Max Pooling 2D&lt;/span&gt;" style="text;html=1;align=center;verticalAlign=middle;whiteSpace=wrap;rounded=0;" parent="1" vertex="1">
          <mxGeometry x="647" y="300" width="130" height="30" as="geometry" />
        </mxCell>
        <mxCell id="9jcaQPvV0LxUwKU2eS0L-44" value="" style="rounded=0;whiteSpace=wrap;html=1;fillColor=light-dark(#00FF00,#00FF00);textDirection=ltr;labelPosition=right;verticalLabelPosition=middle;align=left;verticalAlign=middle;" parent="1" vertex="1">
          <mxGeometry x="640" y="335" width="20" height="20" as="geometry" />
        </mxCell>
        <mxCell id="9jcaQPvV0LxUwKU2eS0L-45" value="&lt;div style=&quot;text-align: left;&quot;&gt;&lt;span style=&quot;background-color: transparent; color: light-dark(rgb(0, 0, 0), rgb(255, 255, 255));&quot;&gt;Fully Connected + ReLU&lt;/span&gt;&lt;/div&gt;" style="text;html=1;align=center;verticalAlign=middle;whiteSpace=wrap;rounded=0;" parent="1" vertex="1">
          <mxGeometry x="650" y="330" width="170" height="30" as="geometry" />
        </mxCell>
      </root>
    </mxGraphModel>
  </diagram>
</mxfile>
